<svg id="Layer_1" data-name="Layer 1" xmlns="http://www.w3.org/2000/svg" xmlns:xlink="http://www.w3.org/1999/xlink" viewBox="0 0 138.91 59.31" preserveAspectRatio="xMinYMid"><defs><clipPath id="clip-path" transform="translate(-3.17 5.95)"><path d="M78.67,12.63c-7.46,0-12.8,5.06-13.45,12.48H62.8a1.4,1.4,0,1,0,0,2.8h2.42c.55,7.63,6,12.5,14.3,12.5A19.21,19.21,0,0,0,88,38.76,1.58,1.58,0,0,0,89.1,37a1.22,1.22,0,0,0-.54-.88A1.86,1.86,0,0,0,87,36.09c-.47.14-.89.29-1.29.43a14.65,14.65,0,0,1-5.84,1c-6.39,0-10.62-3.73-10.78-9.51v-.09H89a1.64,1.64,0,0,0,1.84-1.69V26C90.81,13.6,81.52,12.63,78.67,12.63Zm8.68,12.48H69.09V25c.44-5.77,4.24-9.5,9.68-9.5,4.14,0,8.57,2.5,8.57,9.52ZM38,14.9a1.9,1.9,0,1,0-3.79,0V25.11H38ZM53.69,28.84c0,4.84-3.46,8.62-7.89,8.62-5.24,0-7.78-2.79-7.78-8.52v-1H34.23v1.24c0,7.47,3.52,11.26,10.47,11.26a9.38,9.38,0,0,0,8.92-5.28l.07-.13v3.14a1.9,1.9,0,1,0,3.79,0V27.92H53.69Zm1.9-15.89a1.77,1.77,0,0,0-1.9,2V25.11h3.79V14.9A1.77,1.77,0,0,0,55.59,12.95Zm-39.1-.32c-6.06,0-8.44,3.91-9,5.11l-.49,1V4.43a1.84,1.84,0,0,0-1.9-2.06,1.84,1.84,0,0,0-1.9,2.06V25.11H7v-.06c0-4.56,2.63-9.47,8.41-9.47,4.71,0,7.31,3,7.31,8.52v1h3.8v-.9C26.49,16.75,22.93,12.63,16.48,12.63ZM3.17,38a1.84,1.84,0,0,0,1.9,2.05A1.84,1.84,0,0,0,7,38V27.92H3.17Zm19.52,0a1.9,1.9,0,1,0,3.8,0V27.92h-3.8Z" fill="none"/></clipPath><linearGradient id="linear-gradient" y1="29.66" x2="87.66" y2="29.66" gradientUnits="userSpaceOnUse"><stop offset="0" stop-color="#e3000b"/><stop offset="0.08" stop-color="#e83405"/><stop offset="0.14" stop-color="#eb5801"/><stop offset="0.17" stop-color="#ec6500"/><stop offset="0.25" stop-color="#f28a00"/><stop offset="0.33" stop-color="#f7a600"/><stop offset="0.37" stop-color="#f9b000"/><stop offset="0.42" stop-color="#ebb204"/><stop offset="0.51" stop-color="#c4b90e"/><stop offset="0.61" stop-color="#94c11a"/><stop offset="0.67" stop-color="#71b941"/><stop offset="0.77" stop-color="#38ad7f"/><stop offset="0.82" stop-color="#22a898"/><stop offset="0.88" stop-color="#19979d"/><stop offset="1" stop-color="#016aab"/><stop offset="1" stop-color="#0069ab"/></linearGradient></defs><title>hue-logo</title><path d="M103.63,15.41a2.55,2.55,0,0,1-2.53,2.77,2.1,2.1,0,0,1-2-1.13v2.39a.4.4,0,0,1-.42.43.39.39,0,0,1-.42-.43V13.1a.34.34,0,0,1,.37-.39.35.35,0,0,1,.36.36l.05.76a2.16,2.16,0,0,1,2-1.18A2.54,2.54,0,0,1,103.63,15.41Zm-4.51,0a1.84,1.84,0,1,0,3.65,0,1.84,1.84,0,1,0-3.65,0Z" transform="translate(-3.17 5.95)" fill="#626261"/><path d="M110.06,15.33a.37.37,0,0,1-.41.38h-3.84a1.84,1.84,0,0,0,2.06,1.81,3.37,3.37,0,0,0,1.38-.28c.27-.08.44,0,.47.23a.35.35,0,0,1-.24.39,3.78,3.78,0,0,1-1.69.33,2.63,2.63,0,0,1-2.86-2.74,2.62,2.62,0,0,1,2.69-2.79A2.39,2.39,0,0,1,110.06,15.33Zm-4.25-.21h3.46a1.62,1.62,0,0,0-1.62-1.81A1.81,1.81,0,0,0,105.81,15.12Z" transform="translate(-3.17 5.95)" fill="#626261"/><path d="M114.22,13.09c0,.25-.19.39-.44.43a1.48,1.48,0,0,0-1.32,1.59v2.57a.42.42,0,1,1-.84,0V13.1a.35.35,0,0,1,.36-.39.34.34,0,0,1,.34.34l.08.75a1.73,1.73,0,0,1,1.37-1.1C114.06,12.7,114.22,12.84,114.22,13.09Z" transform="translate(-3.17 5.95)" fill="#626261"/><path d="M118.71,12.91c.21.08.3.22.27.39a.31.31,0,0,1-.32.26.76.76,0,0,1-.22-.05,3.41,3.41,0,0,0-1.15-.21c-.77,0-1.18.33-1.18.81s.63.75,1.33,1c.85.25,1.81.54,1.81,1.6s-.87,1.51-2,1.51a4.66,4.66,0,0,1-1.73-.34.33.33,0,0,1-.21-.36.27.27,0,0,1,.29-.26.58.58,0,0,1,.21,0,4.1,4.1,0,0,0,1.37.27c.87,0,1.25-.37,1.25-.84s-.69-.76-1.43-1-1.69-.55-1.69-1.57.93-1.48,1.94-1.48A4.53,4.53,0,0,1,118.71,12.91Z" transform="translate(-3.17 5.95)" fill="#626261"/><path d="M126.11,15.42a2.85,2.85,0,1,1-2.85-2.76A2.72,2.72,0,0,1,126.11,15.42Zm-.86,0a2,2,0,1,0-4,0,2,2,0,1,0,4,0Z" transform="translate(-3.17 5.95)" fill="#626261"/><path d="M132.37,15v2.72a.42.42,0,1,1-.84,0V14.95c0-1-.47-1.62-1.38-1.62a1.65,1.65,0,0,0-1.59,1.8v2.56a.42.42,0,1,1-.84,0V13.1c0-.26.12-.39.35-.39s.31.09.34.35l.08.76a1.92,1.92,0,0,1,1.88-1.17C131.57,12.65,132.37,13.4,132.37,15Z" transform="translate(-3.17 5.95)" fill="#626261"/><path d="M138.41,14.43v2.68c0,.32.21.28.41.29a.28.28,0,0,1,.28.31.33.33,0,0,1-.18.31,1.06,1.06,0,0,1-.56.11.66.66,0,0,1-.73-.64v-.33a2,2,0,0,1-1.94,1c-1,0-1.88-.5-1.88-1.62s1.08-1.71,2.37-1.71a11,11,0,0,1,1.4.11v-.48c0-.93-.6-1.18-1.42-1.18a5.44,5.44,0,0,0-1.42.21.32.32,0,0,1-.44-.28.35.35,0,0,1,.3-.36,6.23,6.23,0,0,1,1.7-.22C137.6,12.65,138.41,13.14,138.41,14.43Zm-3.74,2.07c0,.74.58,1,1.21,1a1.6,1.6,0,0,0,1.71-1.44v-.59a7.76,7.76,0,0,0-1.33-.11C135.44,15.41,134.67,15.65,134.67,16.5Z" transform="translate(-3.17 5.95)" fill="#626261"/><path d="M141.29,11v6.17c0,.29.12.37.35.36h.19a.26.26,0,0,1,.26.29.35.35,0,0,1-.23.31,1.17,1.17,0,0,1-.51.1.84.84,0,0,1-.89-1V11a.39.39,0,0,1,.41-.43A.4.4,0,0,1,141.29,11Z" transform="translate(-3.17 5.95)" fill="#626261"/><path d="M105.41,23.58,104,27.95a.62.62,0,0,1-1.19,0l-1.14-3.8h0l-1.13,3.8a.61.61,0,0,1-1.18,0l-1.42-4.37c-.11-.35.05-.59.36-.59s.32.1.4.35l1.26,4.07h0l1.16-4a.53.53,0,0,1,.52-.42.5.5,0,0,1,.51.42l1.17,4h0l1.26-4.06c.07-.26.21-.36.39-.36S105.53,23.23,105.41,23.58Z" transform="translate(-3.17 5.95)" fill="#626261"/><path d="M108.23,23a.38.38,0,0,1,.4.4V28a.42.42,0,1,1-.84,0V23.79l-.32-.09a.36.36,0,0,1-.27-.36c0-.2.13-.32.36-.32Zm.44-1.44v.21a.45.45,0,0,1-.5.45.44.44,0,0,1-.49-.45v-.21a.5.5,0,0,1,1,0Z" transform="translate(-3.17 5.95)" fill="#626261"/><path d="M113.71,23.37c0,.25-.19.39-.44.43a1.48,1.48,0,0,0-1.32,1.59V28a.42.42,0,1,1-.84,0V23.38a.35.35,0,0,1,.36-.39.34.34,0,0,1,.34.34l.08.75a1.73,1.73,0,0,1,1.37-1.1C113.55,23,113.71,23.11,113.71,23.37Z" transform="translate(-3.17 5.95)" fill="#626261"/><path d="M120.12,25.6a.37.37,0,0,1-.41.38h-3.84a1.84,1.84,0,0,0,2.06,1.81,3.37,3.37,0,0,0,1.38-.28c.27-.08.44,0,.47.23a.35.35,0,0,1-.24.39,3.78,3.78,0,0,1-1.69.33A2.63,2.63,0,0,1,115,25.71a2.62,2.62,0,0,1,2.69-2.79A2.39,2.39,0,0,1,120.12,25.6Zm-4.25-.21h3.46a1.62,1.62,0,0,0-1.62-1.81A1.81,1.81,0,0,0,115.87,25.4Z" transform="translate(-3.17 5.95)" fill="#626261"/><path d="M123,21.24v6.17c0,.29.12.37.35.36h.19a.26.26,0,0,1,.26.29.35.35,0,0,1-.23.31,1.17,1.17,0,0,1-.51.1.84.84,0,0,1-.89-1V21.24a.39.39,0,0,1,.41-.43A.4.4,0,0,1,123,21.24Z" transform="translate(-3.17 5.95)" fill="#626261"/><path d="M130.53,25.6a.37.37,0,0,1-.41.38h-3.83a1.84,1.84,0,0,0,2.06,1.81,3.37,3.37,0,0,0,1.38-.28c.27-.08.44,0,.47.23a.35.35,0,0,1-.24.39,3.78,3.78,0,0,1-1.69.33,2.63,2.63,0,0,1-2.86-2.74,2.62,2.62,0,0,1,2.69-2.79A2.39,2.39,0,0,1,130.53,25.6Zm-4.25-.21h3.46a1.62,1.62,0,0,0-1.62-1.81A1.81,1.81,0,0,0,126.28,25.4Z" transform="translate(-3.17 5.95)" fill="#626261"/><path d="M135.7,23.18c.21.08.3.22.27.39a.31.31,0,0,1-.32.26.75.75,0,0,1-.22-.05,3.42,3.42,0,0,0-1.15-.21c-.77,0-1.18.33-1.18.81s.63.75,1.33,1c.85.25,1.81.54,1.81,1.6s-.87,1.51-2,1.51a4.66,4.66,0,0,1-1.73-.34.33.33,0,0,1-.21-.36.27.27,0,0,1,.29-.26.58.58,0,0,1,.21,0,4.1,4.1,0,0,0,1.37.27c.87,0,1.25-.37,1.25-.84s-.69-.76-1.43-1-1.69-.55-1.69-1.57.93-1.48,1.94-1.48A4.53,4.53,0,0,1,135.7,23.18Z" transform="translate(-3.17 5.95)" fill="#626261"/><path d="M141.37,23.18c.21.08.3.22.27.39a.31.31,0,0,1-.32.26.75.75,0,0,1-.22-.05,3.42,3.42,0,0,0-1.15-.21c-.77,0-1.18.33-1.18.81s.63.75,1.33,1c.85.25,1.81.54,1.81,1.6s-.87,1.51-2,1.51a4.66,4.66,0,0,1-1.73-.34.33.33,0,0,1-.21-.36.27.27,0,0,1,.29-.26.58.58,0,0,1,.21,0,4.1,4.1,0,0,0,1.37.27c.87,0,1.25-.37,1.25-.84s-.69-.76-1.43-1-1.69-.55-1.69-1.57.93-1.48,1.94-1.48A4.53,4.53,0,0,1,141.37,23.18Z" transform="translate(-3.17 5.95)" fill="#626261"/><path d="M99.17,31.52v6.17c0,.29.12.37.35.36h.19a.26.26,0,0,1,.26.29.35.35,0,0,1-.23.31,1.17,1.17,0,0,1-.51.1.84.84,0,0,1-.89-1V31.52a.39.39,0,0,1,.41-.43A.4.4,0,0,1,99.17,31.52Z" transform="translate(-3.17 5.95)" fill="#626261"/><path d="M102.51,33.3a.38.38,0,0,1,.4.4v4.54a.42.42,0,1,1-.84,0V34.07l-.32-.09a.36.36,0,0,1-.27-.36c0-.2.13-.32.36-.32Zm.44-1.44v.21a.45.45,0,0,1-.5.45.44.44,0,0,1-.49-.45v-.21a.5.5,0,0,1,1,0Z" transform="translate(-3.17 5.95)" fill="#626261"/><path d="M108,33.3h1.43c.19,0,.35.09.35.29a.3.3,0,0,1-.29.32l-.58.07a1.27,1.27,0,0,1,.48,1.07c0,1-.72,1.69-2,1.69a2.28,2.28,0,0,1-1-.21A.62.62,0,0,0,106,37c0,.6,1.12.57,1.88.57,1.23,0,1.82.45,1.82,1.27,0,1.29-1.34,1.53-2.24,1.53s-2.39-.18-2.39-1.45a1.25,1.25,0,0,1,.71-1.07.81.81,0,0,1-.53-.8,1.1,1.1,0,0,1,.56-.86,1.61,1.61,0,0,1-.53-1.24c0-1.15.84-1.78,2.07-1.78A2.74,2.74,0,0,1,108,33.3Zm-2.17,5.59c0,.79.88.89,1.56.89s1.48-.09,1.48-.88c0-.51-.37-.68-1.11-.68a6.64,6.64,0,0,1-1.45-.08A.87.87,0,0,0,105.85,38.89Zm.23-3.9c0,.69.42,1.14,1.26,1.14s1.25-.44,1.25-1.14a1.08,1.08,0,0,0-1.21-1.16C106.56,33.83,106.08,34.24,106.08,35Z" transform="translate(-3.17 5.95)" fill="#626261"/><path d="M112.62,31.54v2.69a1.93,1.93,0,0,1,1.81-1c1.2,0,2,.75,2,2.31v2.7a.42.42,0,1,1-.84,0V35.5c0-1-.47-1.62-1.38-1.62a1.65,1.65,0,0,0-1.59,1.8v2.54a.42.42,0,1,1-.84,0V31.54a.42.42,0,1,1,.84,0Z" transform="translate(-3.17 5.95)" fill="#626261"/><path d="M119.79,32.09v1.2H121c.23,0,.35.12.35.3a.31.31,0,0,1-.35.31h-1.22V37c0,.76.24,1,.8,1A1.83,1.83,0,0,0,121,38a.27.27,0,0,1,.37.27c0,.22-.22.3-.28.32a2.15,2.15,0,0,1-.69.11c-1,0-1.45-.56-1.45-1.71V33.9h-.48c-.23,0-.35-.09-.35-.27s.1-.25.27-.28l.57-.06.09-1.22a.37.37,0,0,1,.38-.35A.35.35,0,0,1,119.79,32.09Z" transform="translate(-3.17 5.95)" fill="#626261"/><path d="M124.09,33.3a.38.38,0,0,1,.4.4v4.54a.42.42,0,1,1-.84,0V34.07l-.32-.09a.36.36,0,0,1-.27-.36c0-.2.13-.32.36-.32Zm.44-1.44v.21a.45.45,0,0,1-.5.45.44.44,0,0,1-.49-.45v-.21a.5.5,0,0,1,1,0Z" transform="translate(-3.17 5.95)" fill="#626261"/><path d="M131.63,35.52v2.72a.42.42,0,1,1-.84,0V35.5c0-1-.47-1.62-1.38-1.62a1.65,1.65,0,0,0-1.59,1.8v2.56a.42.42,0,1,1-.84,0V33.66c0-.26.12-.39.35-.39s.31.09.34.35l.08.76a1.92,1.92,0,0,1,1.88-1.17C130.82,33.2,131.63,34,131.63,35.52Z" transform="translate(-3.17 5.95)" fill="#626261"/><path d="M136.45,33.3h1.43c.2,0,.35.09.35.29a.3.3,0,0,1-.29.32l-.58.07a1.26,1.26,0,0,1,.48,1.07c0,1-.72,1.69-2,1.69a2.28,2.28,0,0,1-1-.21.62.62,0,0,0-.35.51c0,.6,1.12.57,1.88.57,1.23,0,1.82.45,1.82,1.27,0,1.29-1.34,1.53-2.24,1.53s-2.39-.18-2.39-1.45a1.25,1.25,0,0,1,.71-1.07.82.82,0,0,1-.53-.8,1.1,1.1,0,0,1,.57-.86,1.61,1.61,0,0,1-.53-1.24c0-1.15.84-1.78,2.07-1.78A2.75,2.75,0,0,1,136.45,33.3Zm-2.17,5.59c0,.79.88.89,1.56.89s1.48-.09,1.48-.88c0-.51-.37-.68-1.11-.68a6.64,6.64,0,0,1-1.45-.08A.87.87,0,0,0,134.28,38.89Zm.23-3.9c0,.69.42,1.14,1.26,1.14S137,35.69,137,35a1.09,1.09,0,0,0-1.21-1.16C135,33.83,134.5,34.24,134.5,35Z" transform="translate(-3.17 5.95)" fill="#626261"/><g clip-path="url(#clip-path)"><rect width="87.66" height="59.31" fill="url(#linear-gradient)"/></g></svg>